<svg xmlns="http://www.w3.org/2000/svg" width="19.366" height="19.372" viewBox="0 0 19.366 19.372">
  <g id="_01_align_center" data-name="01 align center" transform="translate(0.034 0.002)">
    <path id="Path_96431" data-name="Path 96431" d="M5.628,19.37a5.648,5.648,0,0,1-4-9.645l8.553-8.541A4.041,4.041,0,0,1,15.9,6.894l-8.554,8.54a2.488,2.488,0,0,1-3.432,0,2.421,2.421,0,0,1,0-3.425L11.895,4.04l1.144,1.142-7.983,7.97a.807.807,0,0,0,0,1.141.829.829,0,0,0,1.144,0l8.559-8.541a2.425,2.425,0,1,0-3.433-3.425l-8.559,8.54a4.041,4.041,0,0,0,5.721,5.709l9.7-9.682,1.144,1.142-9.7,9.682a5.648,5.648,0,0,1-4,1.652Z" transform="translate(0 0)" fill="#262e3e"/>
  </g>
</svg>
